<svg aria-hidden="true" style="position: absolute; width: 0; height: 0; overflow: hidden;" version="1.1" xmlns="http://www.w3.org/2000/svg" xmlns:xlink="http://www.w3.org/1999/xlink">
<defs>
<symbol id="icon-square_foot" viewBox="0 0 24 24">
<path d="M6.984 17.016h5.766l-5.766-5.766v5.766zM17.672 17.672l2.344 2.344h-14.016q-0.797 0-1.406-0.609t-0.609-1.406v-14.016l2.344 2.344-1.031 1.078 0.703 0.703 1.031-1.078 1.969 1.969-1.078 1.031 0.703 0.75 1.078-1.078 1.969 1.969-1.078 1.031 0.703 0.703 1.078-1.031 1.922 1.922-1.078 1.078 0.75 0.703 1.031-1.078 1.969 1.969-1.078 1.031 0.703 0.703z"></path>
</symbol>
<symbol id="icon-speedometer" viewBox="0 0 32 32">
<path d="M16-0.034c-8.841 0-16.035 7.192-16.035 16.034s7.194 16.034 16.035 16.034 16.035-7.192 16.035-16.034-7.194-16.034-16.035-16.034zM16 30.966c-8.252 0-14.965-6.714-14.965-14.966s6.713-14.966 14.965-14.966 14.965 6.714 14.965 14.966-6.713 14.966-14.965 14.966zM16.5 6.053c0.305 0 0.553-0.247 0.553-0.553v-2c0-0.306-0.248-0.553-0.553-0.553s-0.553 0.247-0.553 0.553v2c0 0.306 0.248 0.553 0.553 0.553zM5.5 14.947h-2c-0.305 0-0.553 0.247-0.553 0.553s0.248 0.553 0.553 0.553h2c0.305 0 0.553-0.247 0.553-0.553s-0.248-0.553-0.553-0.553zM25.947 15.5c0 0.306 0.248 0.553 0.553 0.553h2c0.305 0 0.553-0.247 0.553-0.553s-0.248-0.553-0.553-0.553h-2c-0.305 0-0.553 0.247-0.553 0.553zM8.575 10.128c0.142 0 0.283-0.054 0.391-0.162 0.216-0.216 0.216-0.565 0-0.781l-1.575-1.576c-0.216-0.217-0.565-0.217-0.781 0s-0.216 0.565 0 0.781l1.575 1.575c0.107 0.109 0.249 0.163 0.39 0.163zM23.891 21.109c-0.216-0.217-0.565-0.217-0.781 0s-0.216 0.565 0 0.781l1.5 1.5c0.108 0.108 0.249 0.162 0.391 0.162s0.283-0.054 0.391-0.162c0.216-0.216 0.216-0.565 0-0.781l-1.501-1.5zM24.891 7.891c0.216-0.216 0.216-0.565 0-0.781s-0.565-0.217-0.781 0l-1.575 1.575c-0.216 0.216-0.216 0.565 0 0.781 0.108 0.108 0.249 0.162 0.391 0.162s0.283-0.054 0.391-0.162l1.574-1.575zM8.609 21.609l-1.5 1.5c-0.216 0.216-0.216 0.565 0 0.781 0.108 0.108 0.249 0.162 0.391 0.162s0.283-0.054 0.391-0.162l1.5-1.5c0.216-0.216 0.216-0.565 0-0.781s-0.566-0.216-0.782 0zM19.5 24h-7c-0.889-0.034-1.535 0.611-1.535 1.5v0.957c0 0.898 0.674 1.603 1.535 1.543h7c0.86 0.060 1.535-0.645 1.535-1.543v-0.957c0-0.889-0.646-1.534-1.535-1.5zM19.965 26.457c0 0.257-0.146 0.534-0.465 0.568h-7c-0.32-0.034-0.465-0.312-0.465-0.025v-0.957c0-0.839 0.169-1.009 0.465-1.043h7c0.296 0.034 0.465 0.204 0.465 0.5v0.957zM16 18.667c0.712 0 1.382-0.277 1.885-0.781 0.911-0.911 1.024-2.32 0.34-3.355l2.653-2.653c0.208-0.209 0.208-0.547 0-0.756-0.209-0.209-0.547-0.209-0.756 0l-2.656 2.656c-1.025-0.655-2.473-0.543-3.351 0.336-1.040 1.040-1.040 2.731 0 3.771 0.503 0.505 1.173 0.782 1.885 0.782zM15.058 15.058c0.251-0.252 0.586-0.391 0.942-0.391s0.691 0.139 0.943 0.391c0.52 0.52 0.52 1.365 0 1.885-0.503 0.504-1.381 0.504-1.885 0-0.52-0.52-0.52-1.366 0-1.885z"></path>
</symbol>
<symbol id="icon-clock" viewBox="0 0 32 32">
<path d="M16 32c8.822 0 16-7.178 16-16s-7.178-16-16-16-16 7.178-16 16 7.178 16 16 16zM16 1c8.271 0 15 6.729 15 15s-6.729 15-15 15-15-6.729-15-15 6.729-15 15-15zM20.061 21.768c0.098 0.098 0.226 0.146 0.354 0.146s0.256-0.049 0.354-0.146c0.195-0.195 0.195-0.512 0-0.707l-4.769-4.768v-6.974c0-0.276-0.224-0.5-0.5-0.5s-0.5 0.224-0.5 0.5v7.181c0 0.133 0.053 0.26 0.146 0.354l4.915 4.914zM3 16c0 0.552 0.448 1 1 1s1-0.448 1-1c0-0.552-0.448-1-1-1s-1 0.448-1 1zM27 16c0 0.552 0.448 1 1 1s1-0.448 1-1c0-0.552-0.448-1-1-1s-1 0.448-1 1zM15 4c0 0.552 0.448 1 1 1s1-0.448 1-1c0-0.552-0.448-1-1-1s-1 0.448-1 1zM15 28c0 0.552 0.448 1 1 1s1-0.448 1-1c0-0.552-0.448-1-1-1s-1 0.448-1 1zM7 8c0 0.552 0.448 1 1 1s1-0.448 1-1c0-0.552-0.448-1-1-1s-1 0.448-1 1zM23 24c0 0.552 0.448 1 1 1s1-0.448 1-1c0-0.552-0.448-1-1-1s-1 0.448-1 1zM24 8c0 0.552 0.448 1 1 1s1-0.448 1-1c0-0.552-0.448-1-1-1s-1 0.448-1 1zM7 24c0 0.552 0.448 1 1 1s1-0.448 1-1c0-0.552-0.448-1-1-1s-1 0.448-1 1z"></path>
</symbol>
<symbol id="icon-bolt" viewBox="0 0 14 28">
<path d="M13.828 8.844c0.172 0.187 0.219 0.453 0.109 0.688l-8.437 18.078c-0.125 0.234-0.375 0.391-0.656 0.391-0.063 0-0.141-0.016-0.219-0.031-0.344-0.109-0.547-0.438-0.469-0.766l3.078-12.625-6.344 1.578c-0.063 0.016-0.125 0.016-0.187 0.016-0.172 0-0.359-0.063-0.484-0.172-0.187-0.156-0.25-0.391-0.203-0.609l3.141-12.891c0.078-0.297 0.359-0.5 0.688-0.5h5.125c0.391 0 0.703 0.297 0.703 0.656 0 0.094-0.031 0.187-0.078 0.281l-2.672 7.234 6.188-1.531c0.063-0.016 0.125-0.031 0.187-0.031 0.203 0 0.391 0.094 0.531 0.234z"></path>
</symbol>
<symbol id="icon-thermometer" viewBox="0 0 16 28">
<path d="M10 21c0 1.656-1.344 3-3 3s-3-1.344-3-3c0-1.25 0.781-2.391 2-2.828v-14.172h2v14.172c1.219 0.438 2 1.578 2 2.828zM12 21c0-1.641-0.781-3.078-2-4v-12c0-1.656-1.344-3-3-3s-3 1.344-3 3v12c-1.219 0.922-2 2.359-2 4 0 2.766 2.234 5 5 5s5-2.234 5-5zM14 21c0 3.859-3.141 7-7 7s-7-3.141-7-7c0-1.906 0.766-3.625 2-4.891v-11.109c0-2.766 2.234-5 5-5s5 2.234 5 5v11.109c1.234 1.266 2 2.984 2 4.891zM16 12v2h-3v-2h3zM16 8v2h-3v-2h3zM16 4v2h-3v-2h3z"></path>
</symbol>
<symbol id="icon-balance-scale" viewBox="0 0 34 28">
<path d="M27 7l-6 11h12zM7 7l-6 11h12zM19.828 4c-0.297 0.844-0.984 1.531-1.828 1.828v20.172h9.5c0.281 0 0.5 0.219 0.5 0.5v1c0 0.281-0.219 0.5-0.5 0.5h-21c-0.281 0-0.5-0.219-0.5-0.5v-1c0-0.281 0.219-0.5 0.5-0.5h9.5v-20.172c-0.844-0.297-1.531-0.984-1.828-1.828h-7.672c-0.281 0-0.5-0.219-0.5-0.5v-1c0-0.281 0.219-0.5 0.5-0.5h7.672c0.422-1.172 1.516-2 2.828-2s2.406 0.828 2.828 2h7.672c0.281 0 0.5 0.219 0.5 0.5v1c0 0.281-0.219 0.5-0.5 0.5h-7.672zM17 4.25c0.688 0 1.25-0.562 1.25-1.25s-0.562-1.25-1.25-1.25-1.25 0.562-1.25 1.25 0.562 1.25 1.25 1.25zM34 18c0 3.219-4.453 4.5-7 4.5s-7-1.281-7-4.5v0c0-0.609 5.453-10.266 6.125-11.484 0.172-0.313 0.516-0.516 0.875-0.516s0.703 0.203 0.875 0.516c0.672 1.219 6.125 10.875 6.125 11.484v0zM14 18c0 3.219-4.453 4.5-7 4.5s-7-1.281-7-4.5v0c0-0.609 5.453-10.266 6.125-11.484 0.172-0.313 0.516-0.516 0.875-0.516s0.703 0.203 0.875 0.516c0.672 1.219 6.125 10.875 6.125 11.484z"></path>
</symbol>
<symbol id="icon-cube" viewBox="0 0 26 28">
<path d="M14 25.453l10-5.453v-9.938l-10 3.641v11.75zM13 11.937l10.906-3.969-10.906-3.969-10.906 3.969zM26 8v12c0 0.734-0.406 1.406-1.047 1.75l-11 6c-0.297 0.172-0.625 0.25-0.953 0.25s-0.656-0.078-0.953-0.25l-11-6c-0.641-0.344-1.047-1.016-1.047-1.75v-12c0-0.844 0.531-1.594 1.313-1.875l11-4c0.219-0.078 0.453-0.125 0.688-0.125s0.469 0.047 0.688 0.125l11 4c0.781 0.281 1.313 1.031 1.313 1.875z"></path>
</symbol>
<symbol id="icon-area-chart" viewBox="0 0 32 28">
<path d="M32 24v2h-32v-24h2v22h30zM26 8l4 14h-26v-9l7-9 9 9z"></path>
</symbol>
<symbol id="icon-ruler" viewBox="0 0 20 20">
<path d="M14.249 0.438l-13.811 13.813c-0.584 0.584-0.584 1.538 0.002 2.124l3.185 3.187c0.584 0.584 1.541 0.586 2.124 0.002l13.813-13.813c0.584-0.585 0.584-1.541 0-2.125l-3.186-3.188c-0.587-0.586-1.542-0.583-2.127 0zM3.929 15.312l-0.759 0.759-1.896-1.897 0.759-0.759 1.896 1.897zM6.965 15.312l-0.759 0.759-3.415-3.415 0.759-0.76 3.415 3.416zM6.965 12.276l-0.759 0.759-1.898-1.896 0.76-0.76 1.897 1.897zM8.483 10.758l-0.759 0.759-1.896-1.896 0.759-0.76 1.896 1.897zM11.518 10.758l-0.759 0.759-3.414-3.414 0.759-0.759 3.414 3.414zM11.518 7.723l-0.759 0.759-1.896-1.896 0.759-0.759 1.896 1.896zM13.036 6.206l-0.759 0.759-1.897-1.897 0.759-0.759 1.897 1.897zM16.072 6.206l-0.76 0.759-3.414-3.415 0.759-0.76 3.415 3.416zM16.071 3.171l-0.759 0.759-1.896-1.898 0.759-0.758 1.896 1.897z"></path>
</symbol>
<symbol id="icon-spinner" viewBox="0 0 28 28">
<path d="M8.219 21.781c0 1.094-0.891 2-2 2-1.094 0-2-0.906-2-2 0-1.109 0.906-2 2-2 1.109 0 2 0.891 2 2zM16 25c0 1.109-0.891 2-2 2s-2-0.891-2-2 0.891-2 2-2 2 0.891 2 2zM5 14c0 1.109-0.891 2-2 2s-2-0.891-2-2 0.891-2 2-2 2 0.891 2 2zM23.781 21.781c0 1.094-0.906 2-2 2-1.109 0-2-0.906-2-2 0-1.109 0.891-2 2-2 1.094 0 2 0.891 2 2zM8.719 6.219c0 1.375-1.125 2.5-2.5 2.5s-2.5-1.125-2.5-2.5 1.125-2.5 2.5-2.5 2.5 1.125 2.5 2.5zM27 14c0 1.109-0.891 2-2 2s-2-0.891-2-2 0.891-2 2-2 2 0.891 2 2zM17 3c0 1.656-1.344 3-3 3s-3-1.344-3-3 1.344-3 3-3 3 1.344 3 3zM25.281 6.219c0 1.937-1.578 3.5-3.5 3.5-1.937 0-3.5-1.563-3.5-3.5 0-1.922 1.563-3.5 3.5-3.5 1.922 0 3.5 1.578 3.5 3.5z"></path>
</symbol>
<symbol id="icon-css3" viewBox="0 0 32 32">
<path d="M4.762 1.516l-1.074 5.373h21.867l-0.684 3.47h-21.881l-1.059 5.372h21.865l-1.219 6.127-8.813 2.919-7.638-2.919 0.523-2.658h-5.372l-1.278 6.448 12.632 4.834 14.563-4.834 4.805-24.133z"></path>
</symbol>

<symbol id="icon-Logo" viewBox="0 0 148 32">
<path d="M0 1.486h29.032v29.032h-29.032v-29.032z"></path>
<path d="M148.018 16c0 8.837-7.163 16-16 16s-16-7.163-16-16c0-8.837 7.163-16 16-16s16 7.163 16 16z"></path>
<path d="M98.386 11.855l-7.182-4.149v4.457h-45.456v7.675h45.456v4.457l14.368-8.294-7.186-4.145z"></path>
</symbol>

<symbol id="icon-swap_horizontal_circle" viewBox="0 0 24 24">
<path d="M9 17.484v-2.484h3.984v-2.016h-3.984v-2.484l-3.516 3.516zM15 6.516v2.484h-3.984v2.016h3.984v2.484l3.516-3.516zM21.984 12q0 4.125-2.93 7.055t-7.055 2.93-7.055-2.93-2.93-7.055 2.93-7.055 7.055-2.93 7.055 2.93 2.93 7.055z"></path>
</symbol>

<symbol id="icon-calculator" viewBox="0 0 26 28">
<path d="M6 24c0-1.109-0.891-2-2-2s-2 0.891-2 2 0.891 2 2 2 2-0.891 2-2zM12 24c0-1.109-0.891-2-2-2s-2 0.891-2 2 0.891 2 2 2 2-0.891 2-2zM6 18c0-1.109-0.891-2-2-2s-2 0.891-2 2 0.891 2 2 2 2-0.891 2-2zM18 24c0-1.109-0.891-2-2-2s-2 0.891-2 2 0.891 2 2 2 2-0.891 2-2zM12 18c0-1.109-0.891-2-2-2s-2 0.891-2 2 0.891 2 2 2 2-0.891 2-2zM6 12c0-1.109-0.891-2-2-2s-2 0.891-2 2 0.891 2 2 2 2-0.891 2-2zM18 18c0-1.109-0.891-2-2-2s-2 0.891-2 2 0.891 2 2 2 2-0.891 2-2zM12 12c0-1.109-0.891-2-2-2s-2 0.891-2 2 0.891 2 2 2 2-0.891 2-2zM24 24v-6c0-1.094-0.906-2-2-2v0c-1.094 0-2 0.906-2 2v6c0 1.094 0.906 2 2 2v0c1.094 0 2-0.906 2-2zM18 12c0-1.109-0.891-2-2-2s-2 0.891-2 2 0.891 2 2 2 2-0.891 2-2zM24 7v-4c0-0.547-0.453-1-1-1h-20c-0.547 0-1 0.453-1 1v4c0 0.547 0.453 1 1 1h20c0.547 0 1-0.453 1-1zM24 12c0-1.109-0.891-2-2-2s-2 0.891-2 2 0.891 2 2 2 2-0.891 2-2zM26 2v24c0 1.094-0.906 2-2 2h-22c-1.094 0-2-0.906-2-2v-24c0-1.094 0.906-2 2-2h22c1.094 0 2 0.906 2 2z"></path>
</symbol>

<symbol id="icon-density" viewBox="0 0 26 32">
<path d="M26 3.9v3.317c-0.062 0.183-0.185 0.301-0.36 0.388-0.916 0.46-1.825 0.929-2.738 1.392-0.048 0.018-0.082 0.064-0.082 0.118 0 0.003 0 0.006 0 0.009l-0-0c-0.003 0.355-0.016 0.711-0.016 1.066q-0.006 2.57-0.007 5.141 0.005 4.016 0.018 8.032c0 0.658 0 1.317 0.007 1.975 0.005 0.448-0.003 0.894-0.071 1.336-0.224 1.455-0.864 2.696-1.936 3.706-0.85 0.814-1.95 1.374-3.174 1.554l-0.032 0.004c-0.17 0.025-0.34 0.042-0.511 0.063h-11.366c-0.027-0.005-0.054-0.010-0.081-0.015-0.315-0.048-0.635-0.076-0.944-0.148-1.344-0.322-2.44-1.042-3.303-2.115-0.763-0.951-1.211-2.039-1.358-3.251-0.017-0.14-0.032-0.28-0.047-0.42v-19.783c0.032-0.171 0.053-0.346 0.098-0.514 0.358-1.343 1.54-2.248 2.931-2.248l16.396-0.002q3.041 0 6.082 0c0.211 0 0.362 0.109 0.451 0.301 0.016 0.031 0.028 0.064 0.042 0.097zM21.276 28.077c0.012-0.018 0.024-0.039 0.034-0.061l0.001-0.003c0.114-0.318 0.244-0.632 0.337-0.954 0.163-0.56 0.18-1.137 0.175-1.717-0.013-1.391-0.015-2.783-0.020-4.174q-0.009-2.608-0.016-5.216-0.004-2.166 0-4.333v-0.099c-0.011-0.001-0.025-0.001-0.038-0.001s-0.027 0-0.040 0.001l0.002-0c-0.282 0.046-0.569 0.072-0.843 0.145-0.594 0.155-1.186 0.31-1.805 0.329-0.668 0.021-1.333 0-1.985-0.172-0.542-0.144-1.080-0.3-1.647-0.313-0.627-0.015-1.246-0.003-1.85 0.204-0.633 0.217-1.29 0.29-1.959 0.29-0.682 0-1.352-0.061-2.007-0.258-0.399-0.129-0.859-0.213-1.337-0.236l-0.012-0c-0.568-0.022-1.134-0.007-1.686 0.142-0.606 0.163-1.211 0.325-1.844 0.343-0.646 0.019-1.288 0-1.919-0.153-0.436-0.106-0.863-0.255-1.313-0.299-0.165-0.016-0.329-0.026-0.502-0.038v14.152c-0 0.009-0 0.020-0 0.031 0 0.697 0.13 1.365 0.367 1.979l-0.013-0.038c0.076 0.204 0.172 0.401 0.265 0.617 0.028-0.041 0.044-0.063 0.058-0.086 0.837-1.307 1.716-2.444 2.684-3.497l-0.016 0.018c0.916-0.996 1.914-1.903 3.048-2.65 0.974-0.642 2.012-1.142 3.16-1.384 0.316-0.067 0.64-0.126 0.962-0.135 0.259-0.008 0.523 0.053 0.782 0.102 0.978 0.185 1.883 0.565 2.741 1.063 1.105 0.642 2.082 1.447 2.985 2.345 1.211 1.207 2.263 2.546 3.195 3.979 0.018 0.025 0.035 0.050 0.056 0.079zM16.749 5.507h0.988c0.114 1.993-0.566 3.655-2.031 5.010 0.035 0.005 0.059 0.009 0.084 0.013 0.314 0.054 0.632 0.090 0.941 0.167 0.517 0.128 1.028 0.274 1.565 0.294 0.639 0.023 1.27-0.008 1.889-0.186 0.408-0.118 0.819-0.224 1.243-0.264 0.12-0.011 0.241-0.022 0.369-0.033 0-0.055 0-0.102 0-0.148 0.012-0.519 0.027-1.038 0.038-1.557 0.005-0.272 0.122-0.452 0.371-0.576 0.909-0.453 1.811-0.92 2.716-1.379 0.048-0.019 0.081-0.066 0.081-0.119 0-0.005-0-0.010-0.001-0.015l0 0.001c-0.003-0.705 0-1.412 0-2.117v-0.095l-10.511 0.002c-0.406 0-0.811 0-1.217 0.002l-6.091 0.003q-2.071 0-4.142 0c-0.006-0-0.013-0-0.020-0-0.133 0-0.264 0.012-0.391 0.036l0.013-0.002c-0.979 0.191-1.641 0.999-1.644 1.998q0 1.933 0 3.866v0.091c0.032 0.003 0.054 0.006 0.076 0.007 0.559 0.019 1.089 0.108 1.593 0.26l-0.044-0.011c0.398 0.128 0.858 0.213 1.334 0.238l0.013 0.001c0.611 0.025 1.217 0 1.808-0.168 0.578-0.166 1.16-0.3 1.765-0.315 0.072 0 0.144-0.007 0.224-0.011-1.45-1.357-2.122-3.010-2.006-4.985h1c0.003 0.006 0.005 0.014 0.006 0.022l0 0c0 0.025 0 0.050-0.003 0.076-0.010 0.119-0.016 0.258-0.016 0.398 0 0.393 0.046 0.775 0.133 1.141l-0.007-0.033c0.545 2.386 2.76 4.007 5.099 3.87 0.548-0.032 1.076-0.164 1.59-0.339 0.484-0.165 0.919-0.432 1.313-0.759q1.852-1.537 1.87-3.947c-0-0.142-0.001-0.284-0.001-0.433zM11.399 31.001v0h5.299c0.012 0 0.027 0 0.041 0 0.337 0 0.665-0.034 0.983-0.097l-0.032 0.005c1.201-0.245 2.177-0.858 2.946-1.808 0.020-0.018 0.032-0.044 0.032-0.072 0-0.024-0.008-0.045-0.022-0.062l0 0c-0.897-1.424-1.856-2.662-2.922-3.798l0.012 0.013c-0.824-0.878-1.717-1.677-2.725-2.338-0.925-0.606-1.91-1.072-3.008-1.266-0.182-0.032-0.371-0.073-0.552-0.058-0.675 0.053-1.319 0.241-1.94 0.504-1.085 0.458-2.039 1.122-2.926 1.889-0.996 0.86-1.875 1.829-2.686 2.862-0.525 0.662-1.053 1.409-1.541 2.184l-0.062 0.106c-0.045 0.073-0.042 0.118 0.017 0.176 0.16 0.158 0.305 0.33 0.474 0.479 0.914 0.818 1.988 1.269 3.221 1.275 1.797 0.013 3.594 0.003 5.391 0.003z"></path>
<path d="M12.1 0c0.137 0.016 0.275 0.030 0.412 0.048 1.473 0.199 2.706 0.854 3.704 1.952 0.139 0.153 0.267 0.319 0.41 0.492-0.022 0.004-0.049 0.007-0.077 0.009l-0.003 0c-0.389 0-0.778 0-1.166-0.002-0.045-0.003-0.084-0.021-0.115-0.049l0 0c-0.703-0.687-1.529-1.154-2.494-1.341-1.704-0.331-3.198 0.107-4.472 1.285-0.068 0.070-0.162 0.113-0.267 0.113-0.006 0-0.013-0-0.019-0l0.001 0c-0.342-0.006-0.683 0-1.025 0-0.032 0-0.065 0-0.123 0 0.121-0.153 0.225-0.29 0.338-0.42 0.832-0.954 1.858-1.601 3.089-1.905 0.335-0.082 0.683-0.115 1.025-0.168 0.027-0.004 0.054-0.010 0.081-0.015z"></path>
<path d="M6.993 25.5c-0.273-0.004-0.493-0.226-0.493-0.5 0-0.276 0.224-0.5 0.5-0.5s0.5 0.224 0.5 0.5c0 0.001 0 0.003-0 0.004v-0c-0.001 0.274-0.224 0.496-0.498 0.496-0.003 0-0.006-0-0.009-0h0z"></path>
<path d="M16.997 27.5c-0.275-0.002-0.497-0.225-0.497-0.5 0-0.276 0.224-0.5 0.5-0.5s0.5 0.224 0.5 0.5c0 0.001 0 0.001 0 0.002v-0c0 0 0 0 0 0 0 0.275-0.223 0.498-0.498 0.498-0.002 0-0.004 0-0.006-0h0z"></path>
<path d="M14.502 29.506c-0.003 0.274-0.226 0.494-0.5 0.494-0.276 0-0.5-0.224-0.5-0.5s0.224-0.5 0.5-0.5c0.004 0 0.007 0 0.011 0h-0.001c0.272 0.005 0.49 0.226 0.49 0.499 0 0.003-0 0.005-0 0.008v-0z"></path>
<path d="M11.246 24c-0.274-0.002-0.496-0.225-0.496-0.5 0-0.276 0.224-0.5 0.5-0.5s0.5 0.224 0.5 0.5c0 0.003-0 0.006-0 0.009v-0c-0.004 0.272-0.225 0.491-0.498 0.491-0.002 0-0.004 0-0.006-0h0z"></path>
<path d="M11.75 27.008c-0.004 0.273-0.226 0.492-0.5 0.492-0.276 0-0.5-0.224-0.5-0.5s0.224-0.5 0.5-0.5c0.004 0 0.008 0 0.012 0h-0.001c0.271 0.004 0.488 0.225 0.488 0.496 0 0.004-0 0.008-0 0.012v-0.001z"></path>
<path d="M7.75 28.007c-0.004 0.273-0.226 0.493-0.5 0.493-0.276 0-0.5-0.224-0.5-0.5s0.224-0.5 0.5-0.5c0.004 0 0.007 0 0.011 0h-0.001c0.271 0.005 0.489 0.227 0.489 0.499 0 0.003-0 0.005-0 0.008v-0z"></path>
<path d="M4 28.994c0.004-0.273 0.226-0.493 0.5-0.493 0.276 0 0.5 0.224 0.5 0.5s-0.224 0.5-0.5 0.5c-0.004 0-0.007-0-0.011-0h0.001c-0.272-0.005-0.49-0.226-0.49-0.499 0-0.003 0-0.006 0-0.009v0z"></path>
<path d="M17.75 29.508c-0.004 0.273-0.226 0.493-0.5 0.493-0.276 0-0.5-0.224-0.5-0.5s0.224-0.5 0.5-0.5c0.001 0 0.003 0 0.004 0h-0c0 0 0 0 0 0 0.274 0 0.496 0.222 0.496 0.496 0 0.004-0 0.008-0 0.012v-0.001z"></path>
<path d="M9.755 29.25c0.274 0.003 0.495 0.226 0.495 0.5 0 0.276-0.224 0.5-0.5 0.5s-0.5-0.224-0.5-0.5c0-0.003 0-0.006 0-0.010v0c0.003-0.272 0.224-0.491 0.496-0.491 0.003 0 0.006 0 0.009 0h-0z"></path>
<path d="M14.25 24.746c0.002-0.274 0.225-0.496 0.5-0.496 0.276 0 0.5 0.224 0.5 0.5s-0.224 0.5-0.5 0.5c-0 0-0 0-0 0h0c-0.001 0-0.002 0-0.004 0-0.274 0-0.496-0.222-0.496-0.496 0-0.003 0-0.006 0-0.008v0z"></path>
</symbol>

<symbol id="icon-history" viewBox="0 0 24 24">
<path d="M12 8.016h1.5v4.219l3.516 2.109-0.75 1.219-4.266-2.578v-4.969zM12.984 3q3.703 0 6.352 2.625t2.648 6.375-2.648 6.375-6.352 2.625q-1.547 0-3.398-0.773t-2.93-1.852l1.406-1.453q2.063 2.063 4.922 2.063 2.906 0 4.969-2.039t2.063-4.945-2.063-4.945-4.969-2.039-4.945 2.039-2.039 4.945h3l-4.031 4.031-0.094-0.141-3.891-3.891h3q0-3.75 2.648-6.375t6.352-2.625z"></path>
</symbol>


<!-- site logo -->
<symbol id="icon-Logoo" viewBox="0 0 78 32">
<path d="M59.946 6.768h-42.323v-1.291h39.222l-2.316-2.329 0.916-0.911 4.501 4.53z"></path>
<path d="M17.622 8.56h42.323v1.291h-39.222l2.316 2.329-0.915 0.911-4.502-4.53z"></path>
<path d="M0 0.712h13.907v13.907h-13.907v-13.907z"></path>
<path d="M78.28 7.664c0 4.233-3.431 7.664-7.664 7.664s-7.664-3.431-7.664-7.664c0-4.233 3.432-7.664 7.664-7.664s7.664 3.432 7.664 7.664z"></path>
<path d="M11.098 31.912c-0.005 0-0.010 0-0.016 0-0.317 0-0.625-0.041-0.918-0.118l0.025 0.006c-0.313-0.080-0.586-0.189-0.842-0.327l0.019 0.010c-0.272-0.147-0.507-0.315-0.718-0.509l0.003 0.002c-0.216-0.198-0.404-0.421-0.562-0.665l-0.008-0.013c-0.182-0.294-0.331-0.635-0.429-0.996l-0.006-0.027c-0.098-0.348-0.155-0.748-0.155-1.161 0-0.006 0-0.011 0-0.017v0.001c0-0.001 0-0.003 0-0.004 0-0.265 0.017-0.526 0.051-0.782l-0.003 0.030c0.038-0.287 0.091-0.541 0.16-0.787l-0.009 0.038c0.087-0.322 0.18-0.589 0.288-0.847l-0.017 0.045c0.112-0.28 0.249-0.586 0.409-0.922l1.328 0.632c-0.14 0.286-0.26 0.544-0.354 0.773-0.072 0.165-0.151 0.38-0.218 0.599l-0.012 0.047c-0.051 0.164-0.095 0.362-0.123 0.564l-0.002 0.020c-0.025 0.173-0.039 0.374-0.039 0.577 0 0.004 0 0.008 0 0.012v-0.001c0 0.003-0 0.007-0 0.011 0 0.269 0.036 0.53 0.104 0.778l-0.005-0.021c0.068 0.252 0.163 0.473 0.285 0.676l-0.007-0.012c0.189 0.28 0.437 0.506 0.727 0.664l0.011 0.005c0.289 0.158 0.633 0.251 0.999 0.251 0.009 0 0.018-0 0.027-0h1.195c0.029 0.001 0.063 0.001 0.096 0.001 0.328 0 0.645-0.048 0.945-0.136l-0.023 0.006c0.241-0.073 0.447-0.2 0.612-0.369l0-0c0.141-0.157 0.245-0.352 0.295-0.567l0.002-0.009c0.050-0.213 0.079-0.458 0.079-0.71 0-0.010-0-0.020-0-0.029v0.002-3.979h1.475v1.844c-0 0.008-0.001 0.017-0.001 0.027 0 0.222 0.099 0.42 0.256 0.553l0.001 0.001c0.162 0.116 0.364 0.186 0.583 0.186 0.018 0 0.036-0 0.054-0.001l-0.003 0h0.472v1.475h-0.47c-0.162-0.001-0.32-0.016-0.474-0.045l0.016 0.003c-0.165-0.029-0.31-0.070-0.449-0.123l0.016 0.006v0.048q0 1.646-0.87 2.465t-2.605 0.82zM10.972 24.218l1.064-1.073 1.084 1.086-1.073 1.073z"></path>
<path d="M21.316 23.784c0 0.028 0.026 0.094 0.050 0.195s0.055 0.227 0.087 0.369 0.065 0.312 0.098 0.492 0.065 0.369 0.094 0.553 0.053 0.36 0.070 0.533c0.016 0.135 0.026 0.293 0.028 0.453v0.002c0 0.017 0.001 0.036 0.001 0.056 0 0.36-0.074 0.703-0.208 1.013l0.006-0.017c-0.24 0.546-0.687 0.964-1.239 1.161l-0.015 0.005c-0.241 0.089-0.52 0.141-0.811 0.142h-2.543v-1.475h2.581c0.074-0.003 0.145-0.010 0.214-0.022l-0.009 0.001c0.101-0.019 0.19-0.058 0.268-0.112l-0.002 0.001c0.098-0.069 0.176-0.159 0.23-0.263l0.002-0.004c0.064-0.129 0.101-0.282 0.101-0.442 0-0.018-0-0.035-0.001-0.052l0 0.002c-0.001-0.112-0.008-0.223-0.022-0.331l0.001 0.013q-0.020-0.184-0.055-0.398c-0.024-0.14-0.050-0.286-0.079-0.433s-0.059-0.288-0.087-0.419-0.055-0.253-0.083-0.36-0.048-0.184-0.065-0.251zM18.13 31.954l-0.983-1.003 0.974-1.016 1.014 1.016zM20.602 31.954l-0.992-1.003 0.981-1.014 1.014 1.014z"></path>
<path d="M22.649 28.731v-1.475h2.531c0.033 0.001 0.072 0.001 0.111 0.001 0.353 0 0.696-0.043 1.024-0.124l-0.029 0.006c0.259-0.062 0.48-0.196 0.648-0.379l0.001-0.001c0.158-0.193 0.267-0.433 0.305-0.695l0.001-0.008c0.050-0.298 0.078-0.641 0.078-0.991 0-0.031-0-0.063-0.001-0.094l0 0.005v-4.748h1.462v6.106c0 0.001 0 0.003 0 0.004 0 0.131 0.024 0.257 0.069 0.372l-0.002-0.007c0.043 0.115 0.106 0.213 0.185 0.295l-0-0c0.077 0.078 0.169 0.14 0.271 0.182l0.005 0.002c0.102 0.043 0.221 0.068 0.346 0.068 0.004 0 0.008-0 0.013-0h0.3v1.475h-0.301c-0.016 0-0.035 0.001-0.054 0.001-0.349 0-0.68-0.082-0.973-0.228l0.013 0.006c-0.302-0.159-0.555-0.37-0.758-0.624l-0.004-0.005c-0.307 0.277-0.677 0.492-1.085 0.619l-0.021 0.006c-0.446 0.139-0.959 0.219-1.49 0.219-0.039 0-0.078-0-0.116-0.001l0.006 0zM23.327 26.295l-0.384-5.83 1.458-0.171 0.389 6.007z"></path>
<path d="M33.075 23.784l0.050 0.195c0.026 0.103 0.055 0.227 0.087 0.369s0.063 0.312 0.096 0.492 0.066 0.369 0.096 0.553 0.052 0.36 0.070 0.533c0.016 0.136 0.025 0.294 0.026 0.455v0.001c0 0.018 0.001 0.039 0.001 0.060 0 0.358-0.073 0.7-0.206 1.010l0.006-0.017c-0.24 0.546-0.687 0.964-1.239 1.161l-0.015 0.005c-0.241 0.089-0.52 0.14-0.811 0.142h-1.572v-1.475h1.611c0.074-0.003 0.144-0.010 0.212-0.022l-0.009 0.001c0.101-0.019 0.19-0.058 0.268-0.112l-0.002 0.001c0.098-0.069 0.177-0.159 0.232-0.263l0.002-0.004c0.064-0.129 0.101-0.282 0.101-0.442 0-0.018-0-0.035-0.001-0.052l0 0.002c0-0.087 0-0.184-0.020-0.317s-0.033-0.256-0.055-0.398-0.052-0.286-0.081-0.433-0.057-0.288-0.085-0.419-0.055-0.253-0.083-0.36-0.048-0.184-0.065-0.251zM30.573 21.413l1.062-1.073 1.086 1.084-1.073 1.069z"></path>
<path d="M38.851 20.248h-2.898c-0.232 0-0.428 0-0.588 0.020-0.15 0.010-0.288 0.048-0.414 0.108l0.007-0.003c-0.113 0.060-0.207 0.144-0.275 0.246l-0.002 0.003c-0.081 0.128-0.148 0.275-0.194 0.432l-0.003 0.013-1.097-0.325c0.088-0.331 0.232-0.621 0.423-0.873l-0.005 0.006c0.171-0.217 0.383-0.394 0.626-0.52l0.011-0.005c0.201-0.097 0.434-0.168 0.679-0.201l0.012-0.001c0.236-0.032 0.508-0.050 0.785-0.050 0.012 0 0.025 0 0.037 0h2.889zM37.081 28.738h-1.475v-7.642h1.475z"></path>
<path d="M44.48 32c-0.004 0-0.009 0-0.013 0-0.281 0-0.553-0.034-0.814-0.099l0.023 0.005c-0.273-0.068-0.512-0.163-0.735-0.284l0.016 0.008c-0.235-0.129-0.439-0.275-0.622-0.443l0.002 0.002c-0.187-0.171-0.351-0.364-0.489-0.575l-0.007-0.011c-0.059-0.092-0.12-0.201-0.176-0.314l-0.009-0.020c-0.060-0.122-0.115-0.265-0.158-0.415l-0.005-0.018c-0.044-0.146-0.085-0.327-0.115-0.512l-0.003-0.024c-0.031-0.183-0.048-0.394-0.048-0.61 0-0.012 0-0.024 0-0.036v0.002c0-0.184 0.009-0.391 0.029-0.594 0.025-0.246 0.064-0.465 0.116-0.68l-0.007 0.034c0.071-0.295 0.148-0.542 0.239-0.781l-0.015 0.043q0.144-0.398 0.38-0.887l1.328 0.631c-0.118 0.243-0.216 0.466-0.295 0.669-0.062 0.152-0.125 0.343-0.176 0.538l-0.008 0.035c-0.040 0.141-0.076 0.313-0.099 0.489l-0.002 0.020c-0.018 0.147-0.029 0.317-0.029 0.49v0.001c0 0.003-0 0.007-0 0.011 0 0.219 0.027 0.432 0.078 0.636l-0.004-0.018c0.051 0.2 0.127 0.376 0.226 0.535l-0.005-0.008c0.157 0.217 0.357 0.392 0.59 0.515l0.009 0.004c0.229 0.125 0.502 0.199 0.792 0.199 0.003 0 0.005 0 0.008-0h0.271c0.028 0.001 0.062 0.001 0.095 0.001 0.327 0 0.642-0.048 0.94-0.136l-0.023 0.006c0.241-0.074 0.447-0.201 0.612-0.369l0-0c0.145-0.155 0.251-0.349 0.301-0.565l0.002-0.008c0.051-0.214 0.080-0.459 0.080-0.712 0-0.013-0-0.026-0-0.039l0 0.002v-8.481h1.451v6.243c-0 0.002-0 0.004-0 0.006 0 0.119 0.031 0.231 0.087 0.327l-0.002-0.003c0.058 0.099 0.132 0.183 0.219 0.249l0.002 0.002c0.089 0.067 0.193 0.121 0.304 0.156l0.007 0.002c0.103 0.036 0.221 0.057 0.345 0.057h0.312v1.475h-0.312c-0.138 0-0.253 0-0.345-0.015-0.091-0.009-0.174-0.028-0.254-0.054l0.008 0.002c-0.070-0.024-0.131-0.054-0.187-0.092l0.003 0.002c-0.069-0.045-0.13-0.090-0.186-0.14l0.002 0.001v0.271q0 3.275-3.457 3.286z"></path>
<path d="M53.62 23.784l0.050 0.195c0.026 0.103 0.053 0.227 0.085 0.369s0.065 0.312 0.098 0.492 0.065 0.369 0.094 0.553 0.053 0.36 0.072 0.533 0.026 0.325 0.026 0.455c0 0.018 0.001 0.040 0.001 0.062 0 0.358-0.074 0.699-0.208 1.007l0.006-0.016c-0.126 0.29-0.303 0.536-0.524 0.736l-0.002 0.002c-0.204 0.185-0.446 0.332-0.713 0.427l-0.015 0.005c-0.241 0.089-0.52 0.141-0.811 0.142h-2.55v-1.475h2.581c0.074-0.003 0.144-0.010 0.212-0.022l-0.009 0.001c0.101-0.019 0.19-0.058 0.268-0.112l-0.002 0.001c0.098-0.069 0.176-0.159 0.23-0.263l0.002-0.004c0.065-0.129 0.103-0.281 0.103-0.441 0-0.018-0-0.036-0.001-0.053l0 0.002c0-0.087 0-0.184-0.020-0.317s-0.033-0.256-0.057-0.398-0.050-0.286-0.079-0.433-0.057-0.288-0.085-0.419-0.055-0.253-0.083-0.36l-0.065-0.251zM50.434 31.958l-0.992-1.003 0.974-1.016 1.014 1.016zM52.904 31.958l-0.99-1.003 0.979-1.014 1.014 1.014z"></path>
<path d="M61.336 28.738h-0.478q-0.785 0-1.499-0.691c-0.129 0.152-0.282 0.279-0.454 0.377l-0.008 0.004c-0.165 0.093-0.356 0.174-0.556 0.233l-0.019 0.005c-0.178 0.055-0.39 0.098-0.607 0.122l-0.016 0.001c-0.181 0.023-0.391 0.036-0.604 0.037h-0.001c-0.16-0-0.318-0.010-0.472-0.030l0.019 0.002c-0.204-0.024-0.381-0.055-0.555-0.095l0.034 0.007c-0.195-0.041-0.419-0.096-0.669-0.164s-0.553-0.157-0.903-0.264l0.424-1.41c0.19 0.080 0.435 0.165 0.686 0.238l0.052 0.013c0.193 0.062 0.444 0.126 0.701 0.176l0.048 0.008c0.201 0.041 0.442 0.072 0.687 0.088l0.016 0.001c0.068 0.005 0.147 0.009 0.227 0.009 0.132 0 0.262-0.008 0.389-0.025l-0.015 0.002c0.168-0.018 0.321-0.065 0.459-0.136l-0.007 0.003c0.113-0.054 0.201-0.146 0.249-0.259l0.001-0.003c0.017-0.037 0.028-0.081 0.029-0.127v-0c-0.002-0.049-0.014-0.094-0.034-0.135l0.001 0.002c-0.031-0.071-0.066-0.131-0.106-0.188l0.002 0.004-0.184-0.286-2.094-2.95 1.239-0.797 2.107 3.193 0.369 0.537c0.127 0.193 0.249 0.357 0.377 0.514l-0.009-0.011c0.113 0.135 0.234 0.256 0.364 0.365l0.005 0.004c0.085 0.082 0.198 0.136 0.322 0.147l0.002 0h0.478z"></path>
<path d="M65.892 27.269v1.475h-0.369c-0.012 0-0.025 0-0.039 0-0.315 0-0.619-0.050-0.904-0.142l0.021 0.006c-0.27-0.087-0.502-0.224-0.696-0.403l0.001 0.001c-0.22 0.183-0.482 0.323-0.769 0.404l-0.015 0.004c-0.294 0.083-0.631 0.131-0.979 0.131-0.018 0-0.035-0-0.052-0l0.003 0h-1.044v-1.475h1.044c0.018 0.001 0.040 0.001 0.061 0.001 0.183 0 0.36-0.025 0.528-0.072l-0.014 0.003c0.125-0.035 0.233-0.092 0.326-0.169l-0.001 0.001c0.067-0.058 0.117-0.135 0.141-0.222l0.001-0.003c0.021-0.072 0.033-0.155 0.033-0.241v-1.912h1.462v1.871c-0.001 0.012-0.001 0.026-0.001 0.040 0 0.141 0.045 0.271 0.121 0.377l-0.001-0.002c0.071 0.094 0.161 0.17 0.265 0.223l0.004 0.002c0.086 0.044 0.186 0.075 0.292 0.088l0.005 0c0.1 0.009 0.166 0.015 0.201 0.015zM62.319 30.855l1.062-1.073 1.086 1.086-1.073 1.073z"></path>
<path d="M70.11 23.784l0.050 0.195c0.026 0.103 0.053 0.227 0.085 0.369s0.065 0.312 0.098 0.492 0.065 0.369 0.094 0.553 0.053 0.36 0.072 0.533 0.026 0.325 0.026 0.455c0 0.018 0.001 0.040 0.001 0.062 0 0.358-0.074 0.699-0.208 1.007l0.006-0.016c-0.126 0.29-0.303 0.536-0.522 0.736l-0.002 0.001c-0.207 0.185-0.452 0.332-0.722 0.427l-0.015 0.005c-0.241 0.089-0.52 0.141-0.811 0.142h-2.536v-1.475h2.581c0.074-0.003 0.144-0.010 0.212-0.022l-0.009 0.001c0.101-0.019 0.19-0.058 0.268-0.112l-0.002 0.001c0.098-0.069 0.176-0.159 0.23-0.263l0.002-0.004c0.065-0.129 0.103-0.281 0.103-0.441 0-0.018-0-0.036-0.001-0.053l0 0.002c0-0.087 0-0.184-0.020-0.317s-0.033-0.256-0.057-0.398-0.050-0.286-0.079-0.433-0.057-0.288-0.085-0.419-0.055-0.253-0.083-0.36l-0.065-0.251zM67.053 22.641l-0.992-1.003 0.974-1.016 1.016 1.016zM69.526 22.641l-0.992-1.003 0.979-1.014 1.016 1.014z"></path>
</symbol>


</defs>
</svg>
